# xmcd
#
# Track frame offsets: 
#        150
#        20307
#        37294
#        55733
#        76466
#        103299
#        124441
#        143658
#        161091
#        186162
#        205808
#        225453
#
# Disc length: 3236 seconds
#
# Revision: 0
# Processed by: cddbd v1.5.1PL2 Copyright (c) Steve Scherf et al.
# Submitted via: ExactAudioCopy v0.95b1
#
DISCID=a70ca20c
DTITLE=이은미 - Ma Mon Tanto
DYEAR=2005
DGENRE=Ballad
TTITLE0=아카시아(숨겨진 사랑)
TTITLE1=세월이 가면
TTITLE2=애인…있어요
TTITLE3=Pin
TTITLE4=날아라 제임수딘
TTITLE5=기억, 마지막 사랑
TTITLE6=사랑이 지나가면
TTITLE7=뒤를 돌아보다
TTITLE8=틈
TTITLE9=가고파
TTITLE10=사랑한다고(드라마 "홍콩익스프레스" ost)
TTITLE11=Miss Hide
EXTD=
EXTT0=
EXTT1=
EXTT2=
EXTT3=
EXTT4=
EXTT5=
EXTT6=
EXTT7=
EXTT8=
EXTT9=
EXTT10=
EXTT11=
PLAYORDER=
